<svg id="圖層_1" data-name="圖層 1" xmlns="http://www.w3.org/2000/svg" xmlns:xlink="http://www.w3.org/1999/xlink" viewBox="0 0 40 40"><defs><style>.cls-1{fill:url(#未命名漸層_17);}</style><linearGradient id="未命名漸層_17" x1="19.922" y1="37.195" x2="19.922" y2="2.805" gradientUnits="userSpaceOnUse"><stop offset="0" stop-color="#117cec"/><stop offset="1" stop-color="#52b6f3"/></linearGradient></defs><title>icon07</title><path class="cls-1" d="M36.737,2.805H3.107A3.111,3.111,0,0,0,0,5.912V29.431a3.111,3.111,0,0,0,3.107,3.107H18.748v2.309H14.637v2.347h10.57V34.848H21.1V32.538H36.737a3.111,3.111,0,0,0,3.107-3.107V5.912a3.111,3.111,0,0,0-3.107-3.107ZM3.107,5.153H36.737a.76.76,0,0,1,.759.759V24.628H2.348V5.912a.76.76,0,0,1,.759-.759ZM36.737,30.19H3.107a.76.76,0,0,1-.759-.759V26.976H37.5v2.455a.76.76,0,0,1-.759.759Zm0,0"/></svg>