<svg id="圖層_1" data-name="圖層 1" xmlns="http://www.w3.org/2000/svg" xmlns:xlink="http://www.w3.org/1999/xlink" viewBox="0 0 70 70"><defs><style>.cls-1{fill:url(#新增漸層色票_1);}.cls-2{fill:url(#新增漸層色票_1-2);}.cls-3{fill:url(#新增漸層色票_1-3);}.cls-4{fill:url(#新增漸層色票_1-4);}.cls-5{fill:url(#新增漸層色票_1-5);}.cls-6{fill:url(#新增漸層色票_1-6);}.cls-7{fill:url(#新增漸層色票_1-7);}.cls-8{fill:url(#新增漸層色票_1-8);}.cls-9{fill:url(#新增漸層色票_1-9);}.cls-10{fill:url(#新增漸層色票_1-10);}.cls-11{fill:url(#新增漸層色票_1-11);}.cls-12{fill:url(#新增漸層色票_1-12);}.cls-13{fill:url(#新增漸層色票_1-13);}</style><linearGradient id="新增漸層色票_1" x1="22.993" y1="70" x2="22.993" y2="46.553" gradientUnits="userSpaceOnUse"><stop offset="0" stop-color="#117cec"/><stop offset="1" stop-color="#52b6f3"/></linearGradient><linearGradient id="新增漸層色票_1-2" x1="28.89" y1="21.105" x2="28.89" y2="19.059" xlink:href="#新增漸層色票_1"/><linearGradient id="新增漸層色票_1-3" x1="43.521" y1="21.042" x2="43.521" y2="18.884" xlink:href="#新增漸層色票_1"/><linearGradient id="新增漸層色票_1-4" x1="46.661" y1="21.042" x2="46.661" y2="18.884" xlink:href="#新增漸層色票_1"/><linearGradient id="新增漸層色票_1-5" x1="49.801" y1="21.042" x2="49.801" y2="18.884" xlink:href="#新增漸層色票_1"/><linearGradient id="新增漸層色票_1-6" x1="34.196" y1="44.423" x2="34.196" y2="0.148" xlink:href="#新增漸層色票_1"/><linearGradient id="新增漸層色票_1-7" x1="52.356" y1="66.341" x2="52.356" y2="31.455" xlink:href="#新增漸層色票_1"/><linearGradient id="新增漸層色票_1-8" x1="22.089" y1="43.514" x2="22.089" y2="32.368" xlink:href="#新增漸層色票_1"/><linearGradient id="新增漸層色票_1-9" x1="46.303" y1="43.514" x2="46.303" y2="32.368" xlink:href="#新增漸層色票_1"/><linearGradient id="新增漸層色票_1-10" x1="30.492" y1="43.514" x2="30.492" y2="32.972" xlink:href="#新增漸層色票_1"/><linearGradient id="新增漸層色票_1-11" x1="33.906" y1="43.401" x2="33.906" y2="41.252" xlink:href="#新增漸層色票_1"/><linearGradient id="新增漸層色票_1-12" x1="37.239" y1="43.401" x2="37.239" y2="41.252" xlink:href="#新增漸層色票_1"/><linearGradient id="新增漸層色票_1-13" x1="40.572" y1="43.401" x2="40.572" y2="41.252" xlink:href="#新增漸層色票_1"/></defs><title>icon01 複本</title><path class="cls-1" d="M39.065,52.377H13.891v-4.8a1.023,1.023,0,1,0-2.046,0v5.045a1.8,1.8,0,0,0,1.8,1.8h6.11v6.429a.172.172,0,0,1-.172.172h-5.1V60.011a2.259,2.259,0,0,0-2.257-2.257H8.155A2.259,2.259,0,0,0,5.9,60.011v4.072a2.259,2.259,0,0,0,2.257,2.257h4.072a2.259,2.259,0,0,0,2.257-2.257V63.071h5.1A2.221,2.221,0,0,0,21.8,60.853V54.423H33.172v6.991H32.159A2.259,2.259,0,0,0,29.9,63.671v4.072A2.259,2.259,0,0,0,32.159,70h4.072a2.259,2.259,0,0,0,2.257-2.257V63.671a2.259,2.259,0,0,0-2.257-2.257H35.219V54.423h3.846a1.023,1.023,0,0,0,0-2.046ZM12.438,64.084a.211.211,0,0,1-.21.21H8.155a.211.211,0,0,1-.21-.21V60.011a.211.211,0,0,1,.21-.21h4.072a.21.21,0,0,1,.21.21Zm24-.413v4.072a.211.211,0,0,1-.21.21H32.159a.211.211,0,0,1-.21-.21V63.671a.211.211,0,0,1,.21-.21h4.072A.211.211,0,0,1,36.442,63.671Z"/><path class="cls-2" d="M18.589,21.105h20.6a1.023,1.023,0,0,0,0-2.046h-20.6a1.023,1.023,0,0,0,0,2.046Z"/><path class="cls-3" d="M43.521,21.042a1.023,1.023,0,0,0,1.023-1.023v-.112a1.023,1.023,0,1,0-2.046,0v.112A1.023,1.023,0,0,0,43.521,21.042Z"/><path class="cls-4" d="M46.661,21.042a1.023,1.023,0,0,0,1.023-1.023v-.112a1.023,1.023,0,1,0-2.046,0v.112A1.023,1.023,0,0,0,46.661,21.042Z"/><path class="cls-5" d="M49.8,21.042a1.023,1.023,0,0,0,1.023-1.023v-.112a1.023,1.023,0,1,0-2.046,0v.112A1.023,1.023,0,0,0,49.8,21.042Z"/><path class="cls-6" d="M60.236,3.807H56.164a2.259,2.259,0,0,0-2.257,2.257V7.077h-5.1A2.221,2.221,0,0,0,46.588,9.3v6.43H35.219V8.734h1.013a2.259,2.259,0,0,0,2.257-2.257V2.4A2.259,2.259,0,0,0,36.232.148H32.159A2.259,2.259,0,0,0,29.9,2.4V6.477a2.259,2.259,0,0,0,2.257,2.257h1.013v6.991H21.8V9.3a2.221,2.221,0,0,0-2.218-2.218h-5.1V6.064a2.259,2.259,0,0,0-2.257-2.257H8.155A2.259,2.259,0,0,0,5.9,6.064v4.072a2.259,2.259,0,0,0,2.257,2.257h4.072a2.259,2.259,0,0,0,2.257-2.257V9.124h5.1a.172.172,0,0,1,.172.172v6.43H14.571a2.729,2.729,0,0,0-2.726,2.726V43.4a1.023,1.023,0,0,0,2.046,0V24.2H54.5v4.1a1.023,1.023,0,1,0,2.046,0v-9.85a2.729,2.729,0,0,0-2.726-2.726H48.635V9.3a.172.172,0,0,1,.172-.172h5.1v1.013a2.259,2.259,0,0,0,2.257,2.257h4.072a2.259,2.259,0,0,0,2.257-2.257V6.064A2.259,2.259,0,0,0,60.236,3.807ZM31.949,6.477V2.4a.211.211,0,0,1,.21-.21h4.072a.211.211,0,0,1,.21.21V6.477a.211.211,0,0,1-.21.21H32.16A.211.211,0,0,1,31.949,6.477ZM12.438,10.137a.211.211,0,0,1-.21.21H8.155a.211.211,0,0,1-.21-.21V6.064a.211.211,0,0,1,.21-.21h4.072a.21.21,0,0,1,.21.21ZM54.5,18.451v3.7H13.891v-3.7a.68.68,0,0,1,.679-.679H53.82A.68.68,0,0,1,54.5,18.451Zm5.947-8.314a.211.211,0,0,1-.21.21H56.163a.21.21,0,0,1-.21-.21V6.064a.211.211,0,0,1,.21-.21h4.072a.211.211,0,0,1,.21.21Z"/><path class="cls-7" d="M60.236,57.755H56.164a2.259,2.259,0,0,0-2.257,2.257v1.013h-5.1a.172.172,0,0,1-.172-.172V54.423h6.11a1.8,1.8,0,0,0,1.8-1.8V32.479a1.023,1.023,0,1,0-2.046,0v19.9H43.242a1.023,1.023,0,0,0,0,2.046h3.346v6.429a2.221,2.221,0,0,0,2.218,2.218h5.1v1.013a2.259,2.259,0,0,0,2.257,2.257h4.072a2.259,2.259,0,0,0,2.257-2.257V60.011A2.259,2.259,0,0,0,60.236,57.755Zm.21,6.329a.211.211,0,0,1-.21.21H56.163a.21.21,0,0,1-.21-.21V60.011a.211.211,0,0,1,.21-.21h4.072a.211.211,0,0,1,.21.21Z"/><path class="cls-8" d="M25.087,32.668a1.023,1.023,0,0,0-1.447,0l-4.55,4.55a1.023,1.023,0,0,0,0,1.447l4.55,4.55a1.023,1.023,0,0,0,1.447-1.447l-3.826-3.826,3.826-3.826A1.023,1.023,0,0,0,25.087,32.668Z"/><path class="cls-9" d="M43.3,43.214a1.023,1.023,0,0,0,1.447,0l4.55-4.55a1.023,1.023,0,0,0,0-1.447l-4.55-4.55A1.023,1.023,0,1,0,43.3,34.115l3.826,3.826L43.3,41.767A1.023,1.023,0,0,0,43.3,43.214Z"/><path class="cls-10" d="M33.242,33.093a1.023,1.023,0,0,0-1.385.421l-4.537,8.5a1.023,1.023,0,1,0,1.805.964l4.537-8.5A1.023,1.023,0,0,0,33.242,33.093Z"/><path class="cls-11" d="M32.883,42.275v.1a1.023,1.023,0,1,0,2.046,0v-.1a1.023,1.023,0,0,0-2.046,0Z"/><path class="cls-12" d="M38.262,42.378v-.1a1.023,1.023,0,0,0-2.046,0v.1a1.023,1.023,0,0,0,2.046,0Z"/><path class="cls-13" d="M40.572,41.252a1.023,1.023,0,0,0-1.023,1.023v.1a1.023,1.023,0,0,0,2.046,0v-.1A1.023,1.023,0,0,0,40.572,41.252Z"/></svg>