<svg id="圖層_1" data-name="圖層 1" xmlns="http://www.w3.org/2000/svg" xmlns:xlink="http://www.w3.org/1999/xlink" viewBox="0 0 70 70"><defs><style>.cls-1{fill:url(#新增漸層色票_1);}.cls-2{fill:url(#新增漸層色票_1-2);}.cls-3{fill:url(#新增漸層色票_1-3);}.cls-4{fill:url(#新增漸層色票_1-4);}.cls-5{fill:url(#新增漸層色票_1-5);}.cls-6{fill:url(#新增漸層色票_1-6);}.cls-7{fill:url(#新增漸層色票_1-7);}.cls-8{fill:url(#新增漸層色票_1-8);}.cls-9{fill:url(#新增漸層色票_1-9);}.cls-10{fill:url(#新增漸層色票_1-10);}.cls-11{fill:url(#新增漸層色票_1-11);}.cls-12{fill:url(#新增漸層色票_1-12);}.cls-13{fill:url(#新增漸層色票_1-13);}.cls-14{fill:url(#新增漸層色票_1-14);}.cls-15{fill:url(#新增漸層色票_1-15);}.cls-16{fill:url(#新增漸層色票_1-16);}.cls-17{fill:url(#新增漸層色票_1-17);}.cls-18{fill:url(#新增漸層色票_1-18);}.cls-19{fill:url(#新增漸層色票_1-19);}.cls-20{fill:url(#新增漸層色票_1-20);}</style><linearGradient id="新增漸層色票_1" x1="34.896" y1="69.94" x2="34.896" y2="9.454" gradientUnits="userSpaceOnUse"><stop offset="0" stop-color="#117cec"/><stop offset="1" stop-color="#52b6f3"/></linearGradient><linearGradient id="新增漸層色票_1-2" x1="34.896" y1="46.676" x2="34.896" y2="0.148" xlink:href="#新增漸層色票_1"/><linearGradient id="新增漸層色票_1-3" x1="34.896" y1="11.78" x2="34.896" y2="9.454" xlink:href="#新增漸層色票_1"/><linearGradient id="新增漸層色票_1-4" x1="16.866" y1="17.596" x2="16.866" y2="15.27" xlink:href="#新增漸層色票_1"/><linearGradient id="新增漸層色票_1-5" x1="15.703" y1="22.249" x2="15.703" y2="19.922" xlink:href="#新增漸層色票_1"/><linearGradient id="新增漸層色票_1-6" x1="15.122" y1="26.902" x2="15.122" y2="24.575" xlink:href="#新增漸層色票_1"/><linearGradient id="新增漸層色票_1-7" x1="15.122" y1="31.554" x2="15.122" y2="29.228" xlink:href="#新增漸層色票_1"/><linearGradient id="新增漸層色票_1-8" x1="15.122" y1="36.207" x2="15.122" y2="33.881" xlink:href="#新增漸層色票_1"/><linearGradient id="新增漸層色票_1-9" x1="16.866" y1="40.86" x2="16.866" y2="38.534" xlink:href="#新增漸層色票_1"/><linearGradient id="新增漸層色票_1-10" x1="52.925" y1="17.596" x2="52.925" y2="15.27" xlink:href="#新增漸層色票_1"/><linearGradient id="新增漸層色票_1-11" x1="54.089" y1="22.249" x2="54.089" y2="19.922" xlink:href="#新增漸層色票_1"/><linearGradient id="新增漸層色票_1-12" x1="54.67" y1="26.902" x2="54.67" y2="24.575" xlink:href="#新增漸層色票_1"/><linearGradient id="新增漸層色票_1-13" x1="54.67" y1="31.554" x2="54.67" y2="29.228" xlink:href="#新增漸層色票_1"/><linearGradient id="新增漸層色票_1-14" x1="54.67" y1="36.207" x2="54.67" y2="33.881" xlink:href="#新增漸層色票_1"/><linearGradient id="新增漸層色票_1-15" x1="52.925" y1="40.86" x2="52.925" y2="38.534" xlink:href="#新增漸層色票_1"/><linearGradient id="新增漸層色票_1-16" x1="12.795" y1="7.127" x2="12.795" y2="4.801" xlink:href="#新增漸層色票_1"/><linearGradient id="新增漸層色票_1-17" x1="17.448" y1="7.127" x2="17.448" y2="4.801" xlink:href="#新增漸層色票_1"/><linearGradient id="新增漸層色票_1-18" x1="22.101" y1="7.127" x2="22.101" y2="4.801" xlink:href="#新增漸層色票_1"/><linearGradient id="新增漸層色票_1-19" x1="34.896" y1="42.023" x2="34.896" y2="14.106" xlink:href="#新增漸層色票_1"/><linearGradient id="新增漸層色票_1-20" x1="34.896" y1="33.881" x2="34.896" y2="22.249" xlink:href="#新增漸層色票_1"/></defs><title>icon01 複本 3</title><path class="cls-1" d="M65.139,9.454V11.78a2.326,2.326,0,0,1,2.326,2.326V49H2.326v-34.9A2.326,2.326,0,0,1,4.653,11.78V9.454A4.653,4.653,0,0,0,0,14.106V53.655a4.653,4.653,0,0,0,4.653,4.653H27.517l-2.792,9.306H22.1V69.94h25.59V67.613H45.067l-2.792-9.306H65.139a4.653,4.653,0,0,0,4.653-4.653V14.106a4.653,4.653,0,0,0-4.653-4.653Zm-22.5,58.16H27.154l2.792-9.306h9.9ZM67.465,53.655a2.326,2.326,0,0,1-2.326,2.326H4.653a2.326,2.326,0,0,1-2.326-2.326V51.329H67.465Zm0,0"/><path class="cls-2" d="M11.632,46.676H58.16a4.653,4.653,0,0,0,4.653-4.653V4.8A4.653,4.653,0,0,0,58.16.148H11.632A4.653,4.653,0,0,0,6.979,4.8V42.023a4.653,4.653,0,0,0,4.653,4.653ZM9.306,4.8a2.326,2.326,0,0,1,2.326-2.326H58.16A2.326,2.326,0,0,1,60.486,4.8V42.023A2.326,2.326,0,0,1,58.16,44.35H11.632a2.326,2.326,0,0,1-2.326-2.326Zm0,0"/><rect class="cls-3" x="11.632" y="9.454" width="46.528" height="2.326"/><rect class="cls-4" x="11.632" y="15.27" width="10.469" height="2.326"/><rect class="cls-5" x="11.632" y="19.922" width="8.142" height="2.326"/><rect class="cls-6" x="11.632" y="24.575" width="6.979" height="2.326"/><rect class="cls-7" x="11.632" y="29.228" width="6.979" height="2.326"/><rect class="cls-8" x="11.632" y="33.881" width="6.979" height="2.326"/><rect class="cls-9" x="11.632" y="38.534" width="10.469" height="2.326"/><rect class="cls-10" x="47.691" y="15.27" width="10.469" height="2.326"/><rect class="cls-11" x="50.017" y="19.922" width="8.142" height="2.326"/><rect class="cls-12" x="51.181" y="24.575" width="6.979" height="2.326"/><rect class="cls-13" x="51.181" y="29.228" width="6.979" height="2.326"/><rect class="cls-14" x="51.181" y="33.881" width="6.979" height="2.326"/><rect class="cls-15" x="47.691" y="38.534" width="10.469" height="2.326"/><rect class="cls-16" x="11.632" y="4.801" width="2.326" height="2.326"/><rect class="cls-17" x="16.285" y="4.801" width="2.326" height="2.326"/><rect class="cls-18" x="20.938" y="4.801" width="2.326" height="2.326"/><path class="cls-19" d="M44.337,32.57a10.963,10.963,0,0,0,.421-1.015h2.934a1.163,1.163,0,0,0,1.163-1.163V25.738a1.163,1.163,0,0,0-1.163-1.163H44.757a10.963,10.963,0,0,0-.421-1.015l2.075-2.075a1.162,1.162,0,0,0,0-1.644L43.12,16.549a1.162,1.162,0,0,0-1.644,0L39.4,18.623a10.956,10.956,0,0,0-1.015-.42V15.27a1.163,1.163,0,0,0-1.163-1.163H32.569a1.163,1.163,0,0,0-1.163,1.163V18.2a10.963,10.963,0,0,0-1.015.421l-2.075-2.075a1.162,1.162,0,0,0-1.644,0L23.38,19.84a1.162,1.162,0,0,0,0,1.644l2.074,2.075a10.879,10.879,0,0,0-.42,1.015H22.1a1.163,1.163,0,0,0-1.163,1.163v4.653A1.163,1.163,0,0,0,22.1,31.554h2.934a10.964,10.964,0,0,0,.421,1.015L23.38,34.645a1.162,1.162,0,0,0,0,1.644l3.291,3.291a1.162,1.162,0,0,0,1.644,0l2.075-2.074a10.881,10.881,0,0,0,1.015.42V40.86a1.163,1.163,0,0,0,1.163,1.163h4.653a1.163,1.163,0,0,0,1.163-1.163V37.926a10.964,10.964,0,0,0,1.015-.421l2.075,2.075a1.162,1.162,0,0,0,1.644,0l3.291-3.291a1.162,1.162,0,0,0,0-1.644ZM42.3,37.106l-1.861-1.862a1.165,1.165,0,0,0-1.415-.179,8.138,8.138,0,0,1-2.093.867,1.162,1.162,0,0,0-.872,1.126V39.7H33.733V37.065a1.163,1.163,0,0,0-.872-1.126,8.131,8.131,0,0,1-2.094-.867,1.163,1.163,0,0,0-1.414.18l-1.861,1.86-1.644-1.644,1.861-1.861a1.165,1.165,0,0,0,.18-1.415A8.125,8.125,0,0,1,27.02,30.1a1.162,1.162,0,0,0-1.125-.872h-2.63V26.9H25.9a1.163,1.163,0,0,0,1.126-.872,8.131,8.131,0,0,1,.867-2.094,1.162,1.162,0,0,0-.18-1.414l-1.86-1.861,1.644-1.644,1.861,1.861a1.165,1.165,0,0,0,1.415.18,8.125,8.125,0,0,1,2.093-.868,1.162,1.162,0,0,0,.872-1.125v-2.63H36.06v2.631a1.163,1.163,0,0,0,.872,1.126,8.12,8.12,0,0,1,2.094.867,1.164,1.164,0,0,0,1.415-.18l1.861-1.86,1.644,1.644-1.861,1.861a1.165,1.165,0,0,0-.179,1.415,8.13,8.13,0,0,1,.867,2.093A1.163,1.163,0,0,0,43.9,26.9h2.629v2.326H43.9a1.163,1.163,0,0,0-1.126.872,8.12,8.12,0,0,1-.867,2.094,1.164,1.164,0,0,0,.18,1.415l1.86,1.861Zm0,0"/><path class="cls-20" d="M34.9,22.249a5.816,5.816,0,1,0,5.816,5.816A5.816,5.816,0,0,0,34.9,22.249Zm0,9.306a3.49,3.49,0,1,1,3.49-3.49,3.49,3.49,0,0,1-3.49,3.49Zm0,0"/></svg>