<svg id="圖層_1" data-name="圖層 1" xmlns="http://www.w3.org/2000/svg" xmlns:xlink="http://www.w3.org/1999/xlink" viewBox="0 0 40 40"><defs><style>.cls-1{fill:url(#未命名漸層_17);}</style><linearGradient id="未命名漸層_17" x1="20" y1="40" x2="20" gradientUnits="userSpaceOnUse"><stop offset="0" stop-color="#117cec"/><stop offset="1" stop-color="#52b6f3"/></linearGradient></defs><title>icon06</title><path class="cls-1" d="M3.7,28.435a1.562,1.562,0,0,1-2.042-.845A19.842,19.842,0,0,1,33.11,5.113V1.562a1.563,1.563,0,0,1,3.125,0V9.016a1.573,1.573,0,0,1-1.562,1.648H27.132a1.562,1.562,0,0,1,0-3.125h4.007A16.72,16.72,0,0,0,4.548,26.393,1.563,1.563,0,0,1,3.7,28.435ZM38.339,12.41a1.563,1.563,0,1,0-2.887,1.2A16.719,16.719,0,0,1,8.862,32.462h4.007a1.563,1.563,0,0,0,0-3.125H5.328a1.569,1.569,0,0,0-1.563,1.648v7.453a1.563,1.563,0,1,0,3.125,0v-3.55A19.844,19.844,0,0,0,38.339,12.41Zm0,0"/></svg>