<svg id="圖層_1" data-name="圖層 1" xmlns="http://www.w3.org/2000/svg" xmlns:xlink="http://www.w3.org/1999/xlink" viewBox="0 0 70 70"><defs><style>.cls-1{fill:url(#新增漸層色票_1);}.cls-2{fill:url(#新增漸層色票_1-2);}.cls-3{fill:url(#新增漸層色票_1-3);}.cls-4{fill:url(#新增漸層色票_1-4);}.cls-5{fill:url(#新增漸層色票_1-5);}</style><linearGradient id="新增漸層色票_1" x1="44.124" y1="56.803" x2="44.124" y2="48.147" gradientUnits="userSpaceOnUse"><stop offset="0" stop-color="#117cec"/><stop offset="1" stop-color="#52b6f3"/></linearGradient><linearGradient id="新增漸層色票_1-2" x1="30.293" y1="36.434" x2="30.293" y2="32.697" xlink:href="#新增漸層色票_1"/><linearGradient id="新增漸層色票_1-3" x1="21.843" y1="43.207" x2="21.843" y2="38.536" xlink:href="#新增漸層色票_1"/><linearGradient id="新增漸層色票_1-4" x1="33.212" y1="59.555" x2="33.212" y2="37.368" xlink:href="#新增漸層色票_1"/><linearGradient id="新增漸層色票_1-5" x1="35.546" y1="70.073" x2="35.546" y2="0" xlink:href="#新增漸層色票_1"/></defs><title>icon01</title><path class="cls-1" d="M42.458,56.8a1.169,1.169,0,0,0,.842-.357,14.027,14.027,0,0,0,3.636-6.89,1.167,1.167,0,0,0-2.286-.476,11.7,11.7,0,0,1-3.037,5.749,1.168,1.168,0,0,0,.841,1.978Zm0,0"/><path class="cls-2" d="M26.842,34.226a1.168,1.168,0,0,0,1.063,2.079,11.563,11.563,0,0,1,5.308-1.273,1.168,1.168,0,0,0,0-2.336,14.052,14.052,0,0,0-6.371,1.529Zm0,0"/><path class="cls-3" d="M23.084,38.726a1.167,1.167,0,0,0-1.616.34,13.948,13.948,0,0,0-1.313,2.548,1.169,1.169,0,0,0,.663,1.518,1.2,1.2,0,0,0,.425.075,1.168,1.168,0,0,0,1.088-.743,11.642,11.642,0,0,1,1.092-2.123,1.168,1.168,0,0,0-.34-1.615Zm0,0"/><path class="cls-4" d="M34.38,38.536a1.168,1.168,0,1,0-2.336,0v1.431c-2.394.454-4.67,2.248-4.67,4.678,0,4.1,3.408,4.626,5.662,4.97,2.671.411,3.679.745,3.679,2.664,0,.872-1.53,1.888-3.5,1.888a7.768,7.768,0,0,1-3.985-1.3,1.168,1.168,0,1,0-1.373,1.89,10.434,10.434,0,0,0,4.189,1.658v1.978a1.168,1.168,0,0,0,2.336,0V56.416c2.662-.392,4.671-2.1,4.671-4.137,0-4.1-3.407-4.627-5.662-4.971-2.67-.41-3.68-.745-3.68-2.663,0-1.363,1.917-2.46,3.5-2.46A4.132,4.132,0,0,1,36.872,43.7a1.168,1.168,0,0,0,2.032-1.15,6.06,6.06,0,0,0-4.524-2.615Zm0,0"/><path class="cls-5" d="M21.535,0a18.684,18.684,0,0,0-8.641,35.241A23.335,23.335,0,1,0,56.293,50.1a18.669,18.669,0,1,0-16.2-33.5A18.7,18.7,0,0,0,21.535,0ZM32.228,6.34A16.63,16.63,0,0,1,33.89,7.975L32.226,9.646a14.246,14.246,0,0,0-1.652-1.652ZM49.561,46.71A16.348,16.348,0,1,1,33.213,30.362,16.348,16.348,0,0,1,49.561,46.71ZM36.715,28.367V26.032c.452.074.9.147,1.342.249.085.02.17.044.255.066.35.085.684.194,1.024.3.288.089.584.171.863.272l.155.057a20.866,20.866,0,0,1,5,2.64l-1.65,1.65a18.566,18.566,0,0,0-6.992-2.895Zm10.489,6a18.823,18.823,0,0,0-1.652-1.652l1.634-1.635a21.291,21.291,0,0,1,1.65,1.654Zm3.1.2a21.187,21.187,0,0,1,1.4,2.218c.069.13.134.262.2.393.176.341.35.684.5,1.035.218.493.422.994.6,1.505.015.043.034.084.047.127.138.391.26.79.375,1.19.057.2.108.41.159.616.089.36.181.72.252,1.088.029.152.046.31.071.468h-2.36a18.582,18.582,0,0,0-2.894-6.991ZM21.535,25.691a7.007,7.007,0,1,1,7.007-7.006,7.006,7.006,0,0,1-7.007,7.006Zm8.174.325v2.352a18.576,18.576,0,0,0-6.99,2.895L21.053,29.6c.023-.017.045-.036.07-.053.1-.07.2-.149.3-.219l.154-.1c.394-.263.8-.5,1.213-.738.153-.088.3-.187.453-.27.374-.2.763-.376,1.151-.556.207-.1.409-.205.619-.3l.131-.055c.208-.086.425-.153.637-.234.4-.152.8-.312,1.215-.439l.033-.011a20.808,20.808,0,0,1,2.685-.609ZM19.221,34.37l-1.656-1.651c.211-.233.417-.476.638-.7.117-.117.234-.233.344-.341.216-.212.445-.408.67-.61l1.651,1.65a18.715,18.715,0,0,0-1.648,1.651ZM34.38,28.086c-.388-.025-.773-.059-1.167-.059s-.78.035-1.168.059V25.758c.31-.017.617-.051.935-.055.079,0,.155-.011.233-.011.212,0,.419.026.63.031.057,0,.117.008.168.011.124,0,.245.024.37.032Zm-2.164-4.7c-.389.016-.774.043-1.159.079-.125.011-.251.02-.376.034q-.635.068-1.26.173a9.337,9.337,0,1,0-9.9,4.13c-.2.143-.393.279-.584.428-.029.022-.056.047-.084.069-.133.1-.261.215-.391.321-.063.051-.125.1-.185.153-.242.2-.479.407-.713.619-.072.066-.153.124-.225.191a11.677,11.677,0,1,1,15.871-10.9,11.5,11.5,0,0,1-1,4.7ZM25.038,2.725a16.281,16.281,0,0,1,5.305,2.2l-1.7,1.7a13.939,13.939,0,0,0-3.6-1.493Zm-4.671-.33c.388-.028.773-.059,1.167-.059s.781.031,1.168.058V4.73c-.386-.032-.772-.059-1.168-.059s-.781.027-1.167.06Zm-2.336.329V5.133a13.942,13.942,0,0,0-3.6,1.493l-1.7-1.7a16.231,16.231,0,0,1,5.3-2.206Zm-7.186,3.62L12.5,7.994a14.11,14.11,0,0,0-1.652,1.652L9.194,7.995a16.332,16.332,0,0,1,1.651-1.652ZM7.78,9.883l1.7,1.7a13.924,13.924,0,0,0-1.487,3.6H5.574a16.223,16.223,0,0,1,2.206-5.3Zm-2.593,8.8c0-.395.031-.78.059-1.168H7.581c-.033.387-.059.773-.059,1.168s.018.782.049,1.167H5.229c-.027-.387-.042-.776-.042-1.167Zm2.587,8.808a16.327,16.327,0,0,1-2.2-5.3h2.4a13.932,13.932,0,0,0,1.494,3.62Zm3.066,3.539a16.269,16.269,0,0,1-1.652-1.65l1.642-1.643a13.816,13.816,0,0,0,1.652,1.651Zm1.891,1.412,1.69-1.69a12.714,12.714,0,0,0,1.2.626c-.06.07-.117.142-.18.212-.124.145-.249.288-.369.435-.322.4-.636.81-.935,1.234a16.046,16.046,0,0,1-1.41-.817Zm2.875,2.824c.154-.234.314-.467.477-.693l.017-.023,1.666,1.666a18.568,18.568,0,0,0-2.9,6.991H12.51a20.875,20.875,0,0,1,3.1-7.941ZM12.193,46.71c0-.394.037-.779.06-1.168h2.336c-.025.388-.06.774-.06,1.168s.035.781.06,1.168H12.253c-.023-.389-.06-.773-.06-1.168ZM16.1,58.87a20.892,20.892,0,0,1-3.59-8.657h2.36a18.568,18.568,0,0,0,2.9,6.99Zm3.123,3.488A21.166,21.166,0,0,1,17.565,60.7l1.651-1.651A18.706,18.706,0,0,0,20.868,60.7Zm10.487,5.055a20.9,20.9,0,0,1-8.656-3.59l1.666-1.665a18.583,18.583,0,0,0,6.99,2.895Zm4.671.257c-.389.022-.773.06-1.167.06s-.779-.038-1.168-.06V65.334c.388.025.773.06,1.168.06s.78-.035,1.167-.06Zm2.335-.257v-2.36a18.573,18.573,0,0,0,6.991-2.895l1.666,1.665a20.9,20.9,0,0,1-8.657,3.59ZM47.2,62.358l-1.651-1.651A18.8,18.8,0,0,0,47.2,59.054L48.861,60.7A21.339,21.339,0,0,1,47.2,62.358Zm3.123-3.483-1.665-1.666a18.576,18.576,0,0,0,2.894-6.995h2.36a20.9,20.9,0,0,1-3.59,8.657Zm3.847-11H51.837c.025-.388.06-.773.06-1.168s-.035-.78-.06-1.168h2.336c.022.389.059.774.059,1.168s-.038.779-.059,1.168ZM48.495,29.06l-.088-.075c-.419-.358-.849-.7-1.294-1.033l-.146-.1c-.443-.322-.894-.635-1.361-.928a6.916,6.916,0,0,1,3.955-1.231,7.007,7.007,0,0,1,5.106,11.8,23.205,23.205,0,0,0-6.172-8.432Zm7.664,13.259c-.015-.076-.038-.147-.054-.223-.028-.14-.067-.275-.1-.414-.134-.617-.287-1.225-.468-1.822a9.331,9.331,0,0,0-5.98-16.5,9.224,9.224,0,0,0-6.181,2.351c-.265-.127-.529-.258-.8-.375-.107-.048-.21-.106-.32-.151s-.233-.084-.35-.131c-.22-.088-.443-.163-.666-.245-.067-.024-.131-.055-.2-.078A11.669,11.669,0,1,1,56.159,42.319Zm.395,5.138c.014-.251.014-.5.014-.747,0-.623-.039-1.236-.085-1.847.062-.035.126-.067.187-.1l1.693,1.694a16.647,16.647,0,0,1-1.809,1.009Zm3.7-2.419L58.6,43.383A13.98,13.98,0,0,0,60.26,41.74l1.649,1.647a16.47,16.47,0,0,1-1.653,1.655ZM63.324,41.5l-1.691-1.68a13.882,13.882,0,0,0,1.493-3.62h2.4a16.284,16.284,0,0,1-2.2,5.3Zm2.586-8.8q0,.585-.043,1.168H63.521c.031-.387.052-.775.052-1.168s-.027-.781-.06-1.168H65.85c.028.389.06.774.06,1.168Zm-2.594-8.8a16.222,16.222,0,0,1,2.206,5.3H63.113a13.935,13.935,0,0,0-1.493-3.6ZM60.25,20.356A16.229,16.229,0,0,1,61.9,22.008l-1.65,1.651A14.145,14.145,0,0,0,58.6,22.007Zm-7.186-3.619a16.191,16.191,0,0,1,5.3,2.205l-1.7,1.7a13.934,13.934,0,0,0-3.6-1.488Zm-4.671-.316c.389-.028.774-.073,1.167-.073s.78.032,1.168.06v2.335c-.386-.033-.772-.059-1.168-.059s-.779.038-1.167.071Zm-2.335.33v2.392a13.957,13.957,0,0,0-3.59,1.507l-1.7-1.7a16.23,16.23,0,0,1,5.294-2.2ZM38.4,20.777c.154-.145.324-.27.484-.407l1.643,1.641a14.134,14.134,0,0,0-1.919,2,23.1,23.1,0,0,0-2.577-.467c.283-.415.6-.818.917-1.2.058-.071.109-.15.169-.221.331-.389.691-.754,1.057-1.11.077-.077.148-.158.227-.232Zm-.517-2.661A18.66,18.66,0,0,0,35.425,20.5a14.05,14.05,0,0,0,.123-1.819c0-.395-.027-.781-.06-1.168h2.345c.014.2.04.4.05.6Zm-.37-2.934H35.087a13.932,13.932,0,0,0-1.493-3.6l1.7-1.707a16.1,16.1,0,0,1,2.215,5.307Zm0,0"/></svg>