<svg id="圖層_1" data-name="圖層 1" xmlns="http://www.w3.org/2000/svg" xmlns:xlink="http://www.w3.org/1999/xlink" viewBox="0 0 40 40"><defs><style>.cls-1{fill:url(#未命名漸層_17);}.cls-2{fill:url(#未命名漸層_17-2);}</style><linearGradient id="未命名漸層_17" x1="20" y1="39.546" x2="20" y2="0.454" gradientUnits="userSpaceOnUse"><stop offset="0" stop-color="#117cec"/><stop offset="1" stop-color="#52b6f3"/></linearGradient><linearGradient id="未命名漸層_17-2" x1="20" y1="28.565" x2="20" y2="11.234" xlink:href="#未命名漸層_17"/></defs><title>icon08</title><path class="cls-1" d="M35.511,14.3A24.5,24.5,0,0,1,20,37.092,24.5,24.5,0,0,1,4.489,14.3V8.879a7.385,7.385,0,0,0,6.13-6.13H29.381a7.385,7.385,0,0,0,6.13,6.13V14.3Zm1.147-7.63A5.077,5.077,0,0,1,31.586,1.6V.454H8.413V1.6A5.077,5.077,0,0,1,3.342,6.673H2.194V14.3A26.79,26.79,0,0,0,19.6,39.4l.4.15.4-.15A26.79,26.79,0,0,0,37.806,14.3V6.673Z"/><path class="cls-2" d="M17.525,25.32l-4.268-4.267L14.88,19.43l2.645,2.645,7.6-7.6L26.743,16.1,17.525,25.32Zm0-6.491L14.88,16.184l-4.868,4.868,7.513,7.513L29.988,16.1,25.12,11.234l-7.6,7.6Z"/></svg>