<svg id="圖層_1" data-name="圖層 1" xmlns="http://www.w3.org/2000/svg" xmlns:xlink="http://www.w3.org/1999/xlink" viewBox="0 0 70 70"><defs><style>.cls-1{fill:url(#新增漸層色票_1);}</style><linearGradient id="新增漸層色票_1" x1="35" y1="66.437" x2="35" y2="3.637" gradientUnits="userSpaceOnUse"><stop offset="0" stop-color="#117cec"/><stop offset="1" stop-color="#52b6f3"/></linearGradient></defs><title>icon01 複本 2</title><path class="cls-1" d="M67.217,25.592V8.577a4.946,4.946,0,0,0-4.941-4.94H4.94A4.946,4.946,0,0,0,0,8.577V43.239a4.946,4.946,0,0,0,4.94,4.94H21.19l-1.86,2H16.542a1.147,1.147,0,1,0,0,2.294H32.5V63.538a2.9,2.9,0,0,0,2.9,2.9H47.734a2.9,2.9,0,0,0,2.9-2.9v-2.33H66.071A3.934,3.934,0,0,0,70,57.277V29.351a3.937,3.937,0,0,0-2.783-3.759Zm.489,3.759v.314H41.324v-.314a1.638,1.638,0,0,1,1.636-1.636H66.071a1.637,1.637,0,0,1,1.635,1.636ZM47.734,39.042h-6.41V31.959H67.706V54.67H50.632V41.941a2.9,2.9,0,0,0-2.9-2.9Zm.6,4.406H34.8V41.941a.6.6,0,0,1,.6-.6H47.734a.6.6,0,0,1,.6.6ZM64.922,9.724v15.7H42.96a3.935,3.935,0,0,0-3.93,3.93v9.691H35.4a2.9,2.9,0,0,0-2.9,2.895H2.294V9.724ZM34.8,45.743h13.54V59.736H34.8ZM4.94,5.931H62.276a2.646,2.646,0,0,1,2.381,1.5H2.559a2.647,2.647,0,0,1,2.381-1.5Zm-2.451,38.3H32.5v1.653H4.94a2.648,2.648,0,0,1-2.451-1.653Zm19.972,5.95,1.86-2H32.5v2ZM47.734,64.142H35.4a.6.6,0,0,1-.6-.6V62.03h13.54v1.508a.6.6,0,0,1-.6.6ZM66.07,58.914H50.632v-1.95H67.706v.314a1.638,1.638,0,0,1-1.636,1.636Zm0,0"/></svg>