<svg id="圖層_1" data-name="圖層 1" xmlns="http://www.w3.org/2000/svg" xmlns:xlink="http://www.w3.org/1999/xlink" viewBox="0 0 249 61"><defs><style>.cls-1{fill:url(#新增漸層色票_3);}.cls-2{fill:url(#未命名漸層_46);}.cls-3{fill:url(#新增漸層色票_3-2);}.cls-4{fill:url(#未命名漸層_45);}.cls-5{fill:url(#未命名漸層_46-2);}.cls-6{opacity:0.25;fill:url(#未命名漸層_43);}.cls-7{fill:url(#未命名漸層_44);}.cls-8{fill:#fcfcfc;}.cls-9{fill:#009df4;}</style><linearGradient id="新增漸層色票_3" x1="21.01" y1="5.51" x2="94.8" y2="43.32" gradientUnits="userSpaceOnUse"><stop offset="0" stop-color="#00dcfa"/><stop offset="1" stop-color="#006eff"/></linearGradient><linearGradient id="未命名漸層_46" x1="3146.16" y1="324.26" x2="3142.09" y2="327.78" gradientTransform="matrix(-0.98, -0.18, -0.18, 0.98, 3204.69, 289.18)" gradientUnits="userSpaceOnUse"><stop offset="0" stop-opacity="0.3"/><stop offset="1" stop-color="#4b4bf5" stop-opacity="0"/></linearGradient><linearGradient id="新增漸層色票_3-2" x1="13.77" y1="14.57" x2="65.17" y2="43.06" xlink:href="#新增漸層色票_3"/><linearGradient id="未命名漸層_45" x1="61.21" y1="16.57" x2="66.65" y2="23.23" gradientUnits="userSpaceOnUse"><stop offset="0" stop-opacity="0.3"/><stop offset="1" stop-color="#468cf5" stop-opacity="0"/></linearGradient><linearGradient id="未命名漸層_46-2" x1="82.94" y1="27.24" x2="78.82" y2="30.81" gradientTransform="matrix(1, 0, 0, 1, 0, 0)" xlink:href="#未命名漸層_46"/><linearGradient id="未命名漸層_43" x1="2786.12" y1="27.51" x2="2782.04" y2="31.04" gradientTransform="matrix(-1, 0, 0, 1, 2796.62, 0)" gradientUnits="userSpaceOnUse"><stop offset="0" stop-opacity="0.7"/><stop offset="1" stop-color="#fff" stop-opacity="0"/></linearGradient><linearGradient id="未命名漸層_44" x1="34.85" y1="31.7" x2="26.65" y2="25.32" gradientUnits="userSpaceOnUse"><stop offset="0" stop-opacity="0.3"/><stop offset="0.97" stop-color="#fff" stop-opacity="0"/></linearGradient></defs><path class="cls-1" d="M34.89,15.49,28.94,22.6l6.75,5.92L44.05,5a4.25,4.25,0,0,1,4-2.54H67A4.38,4.38,0,0,1,70.45,4L88.21,22a3.69,3.69,0,0,1-.41,5.21L61.24,50.34a4.32,4.32,0,0,1-2.84,1,4.36,4.36,0,0,1-.51,0,4.27,4.27,0,0,1-3-1.67l-3.76-4.77,2-7.85,5.62,7.14,22.79-20L65.87,8.5h-16L40.94,34A4.12,4.12,0,0,1,38,36.4a4.55,4.55,0,0,1-3.82-.82L23,25.85a3.67,3.67,0,0,1-.73-5l5.15-6.1a1.63,1.63,0,0,1,1.23-.57l5.62,0A.81.81,0,0,1,34.89,15.49ZM56.83,45.77l-.12.1ZM65.16,7.7a.94.94,0,0,0,.1.1Z"/><path class="cls-2" d="M52.28,46.34l5.32-3.72-4.05-5.11s-4.4,4.5-2.42,7.37l1.28,1.37"/><path class="cls-3" d="M35,8.54H24L11.75,24.45l30.68,26L54.37,14.23a4.27,4.27,0,0,1,3.51-2.34c1.48-.18,2.51.48,3.88,1.45l8.48,7.91a3.62,3.62,0,0,1-.31,4.94L63,32.56a1.43,1.43,0,0,1-1.88-.07L58.44,29.8a1.14,1.14,0,0,1,.08-1.72l5.09-4.78L59.2,19.52,47.76,56.05a4.11,4.11,0,0,1-3,2.39,4.52,4.52,0,0,1-3.83-.94L5.74,27.68a3.63,3.63,0,0,1-.69-4.94L19.33,4.09a4.13,4.13,0,0,1,3.35-1.66l6.71,0a1.6,1.6,0,0,1,1.05.39l5.07,4.31A.81.81,0,0,1,35,8.54Zm11.4,45.23,0,0ZM10.65,26Z"/><path class="cls-4" d="M59.2,19.51s1.13-4.48,4-4.84l3.73,3.48L63,22.76Z"/><path class="cls-5" d="M81.18,33l-4.51-4.57,4.9-4.3s3.59,3.16,3.21,5.69L81.15,33"/><path class="cls-6" d="M16.73,28.68l-5-4.23s-2.83,3-3,5.79l3.49,3Z"/><path class="cls-7" d="M35.69,28.52S35,32.71,32.34,34l-5-4.29,4.34-4.62Z"/><path class="cls-8" d="M161.47,47.27,172.31,15H186c9.21,0,9.6,4.61,8.2,8.84a10.15,10.15,0,0,1-6.66,6.8c3.14.9,4.16,3.32,3,7.17-1.68,5.47-5.78,9.45-15.05,9.45ZM177.39,41c3.92,0,5.45-1.24,6.26-3.65s.14-3.64-3.81-3.64h-7L170.39,41Zm4.48-13.34c3.17,0,4.58-1.4,5.16-3.2s.2-3.19-3-3.19h-7l-2.15,6.39Z"/><path class="cls-8" d="M212.45,44a18.89,18.89,0,0,1-11,3.24c-8.49,0-9.76-5.92-7.74-12.26,2.28-7,7.32-12.26,15.58-12.26,7.8,0,10,5.62,6.43,15H199.73c-.68,2-.31,4.1,3.31,4.1a14.65,14.65,0,0,0,7.43-2.12ZM210.68,33c.68-2,.59-4.77-3.05-4.77A6.68,6.68,0,0,0,201.35,33Z"/><ellipse class="cls-9" cx="242.29" cy="24.71" rx="3.54" ry="2.71" transform="translate(43.67 165.66) rotate(-41.18)"/><ellipse class="cls-9" cx="138.09" cy="17.56" rx="3.54" ry="2.71" transform="translate(22.6 95.28) rotate(-41.18)"/><circle class="cls-8" cx="154.38" cy="44" r="3"/><path class="cls-8" d="M118.45,31.73l5.93-17.62h6.82l-5.93,17.62c-3.2,9.44-7.68,15.54-17.89,15.54-9,0-11.42-6.1-8.24-15.54l5.93-17.62h6.81L106,31.73c-2,5.82-1.76,9,3.22,9S116.51,37.55,118.45,31.73Z"/><path class="cls-8" d="M227.9,37l3.4-10h5.4a3.79,3.79,0,0,1-.13-2.49,6,6,0,0,1,2.27-3.18h-5.65L235.65,14h-6.71l-2.46,7.29h-4L220.61,27h4l-3.39,10c-2.29,6.81-1.08,10.3,5.41,10.3a13.63,13.63,0,0,0,5.1-1L232,41a10.64,10.64,0,0,1-3.1.56C226.64,41.6,227.1,39.31,227.9,37Z"/><path class="cls-8" d="M149.11,15h-5.36a3.7,3.7,0,0,1,.17,2.57A5.93,5.93,0,0,1,142,20.51h4.94c3.29,0,4.29,2.76,3.29,5.79a6.48,6.48,0,0,1-6.33,4.8H130.57l-5.44,16.17h6.81l3.24-9.67h6.33c7.24,0,13-3,15.59-11.3C159.35,19.11,156.17,15,149.11,15Z"/></svg>